<?xml version="1.0"?>
<svg width="720" height="720" xmlns="http://www.w3.org/2000/svg">

 <g>
  <title>background</title>
  <rect fill="none" id="canvas_background" height="402" width="582" y="-1" x="-1"/>
 </g>
 <g>
  <title>Layer 1</title>
  <rect id="svg_1" height="745" width="741" fill="#7f7f7f" y="-14" x="-11"/>
  <path id="svg_2" d="m26.872999,801l4.257,-15.642029l0.018002,-0.208984c-0.435001,-4.22699 -0.243,-8.278992 -0.021,-11.369995c0.389,-5.437988 0.83,-10.809021 1.17,-14.880005c2.841,-33.984009 5.950001,-63.609985 9.504997,-90.570007l0.800003,-6.10498c3.861,-29.497986 7.850998,-59.987 17.614998,-88.651978c12.024998,-35.307007 41.766003,-54.778992 69.273006,-69.171021c25.679001,-13.43399 52.100998,-24.07901 78.577011,-31.664001c2.534988,-8.671997 10.394989,-19.584991 23.436996,-32.531006c-5.516006,-8.66098 -7.820007,-18.251007 -6.710007,-28.036987c-1.184998,-2.890991 -2.220001,-5.481018 -3.154999,-7.891998c-4.421997,-11.40802 -8.061005,-21.602997 -11.121994,-31.164001c-10.372009,-32.407013 -15.277008,-59.421021 -15.439011,-85.016998c-0.009995,-1.501984 -0.009995,-3.019989 0,-4.541992c-4.04599,-0.335999 -8.209991,-0.738007 -12.613998,-1.216003c-4.722992,-0.514008 -8.620987,-3.735016 -9.929993,-8.207001c-4.158005,-14.188995 -5.281006,-30.727997 -3.337006,-49.154007c0.44101,-4.177994 2.938004,-7.599991 6.44101,-9.284988c-0.458008,-1.363007 -0.701004,-2.832001 -0.690002,-4.366013c0.044998,-6.22699 4.113983,-11.189987 9.832993,-12.472c0.383011,-0.442001 0.792999,-0.854996 1.231003,-1.237c0.899994,-2.556992 1.981995,-4.503998 2.777008,-5.934998c0.82399,-1.481003 1.087997,-1.981003 1.197998,-2.694992c0.552994,-3.605011 1.218002,-7.209 1.977997,-10.712006c7.266998,-33.522995 20.925995,-63.347 39.498993,-86.247009c27.664993,-34.110001 69.672989,-53.673 115.251999,-53.673c10.799988,0 21.742004,1.091999 32.52301,3.246002c41.128998,8.219997 78.14801,33.73 104.23999,71.832996c22.128998,32.317009 25.217987,74.165016 24.854004,98.176018c1.36499,0.768997 2.671997,1.61499 3.904968,2.530991c7.550049,5.602997 11.869019,14.350006 12.491028,25.296005c0.460022,8.093994 -1.132996,17.394989 -4.494995,26.324005c0.059998,0.501007 0.123962,0.984985 0.185974,1.214996c0.73999,2.790009 1.23999,5.850983 1.489014,9.104004c1.095032,14.34198 -2.382019,26.987 -10.332001,37.583008c-7.549988,10.062988 -19.061005,24.047974 -31.811005,29.294983c-1.279999,0.527008 -2.569977,0.957001 -3.859985,1.283997c-2.688019,14.710999 -4.562012,28.326996 -5.718018,41.522003l-0.213989,2.419006c-0.190002,2.130981 -0.38501,4.300995 -0.553986,6.475006c11.875977,0.773987 21.639984,5.075989 28.402985,12.55899c7.450012,8.243011 10.891998,19.851013 10.244995,34.527008c3.559021,3.276978 6.333008,5.515991 7.156982,5.997986c1.537048,0.692993 3.382996,1.738007 5.294006,2.992004l67.382019,25.04599c14.187988,5.27301 27.184021,13.281006 39.750977,21.026001c6.315002,3.893005 12.830994,7.908997 19.205994,11.367004l0.982056,0.53299c20.901978,11.338989 42.497009,23.052979 63.386963,35.983032c1.392029,0.860962 3.286011,1.843994 5.291992,2.882996c5.940002,3.08197 12.671997,6.572998 16.971008,11.968018c5.565002,6.984985 10.998047,14.894958 17.098022,24.891968c11.705994,19.189026 21.440979,38.875977 28.937988,58.513c7.992981,20.934021 13.169983,42.54303 18.177002,63.440002c1.19397,4.98999 2.38501,9.958008 3.612976,14.929016l1.036011,4.208984c3.015015,12.270996 6.130005,24.958984 10.604004,36.550964c0.124023,0.318054 0.276978,0.744019 0.453979,1.233032c0.325012,0.90802 0.562012,1.536987 0.735046,1.973999c4.585999,4.526978 4.104004,12.026001 3.622009,16.195007l6.425964,19.523987l-797.319994,0z" fill="#FFFFFF"/>
  <path id="svg_3" d="m33.411999,796l2.657001,-9.762024l0.099998,-1.141968c-0.455997,-3.968994 -0.272999,-7.950012 -0.057999,-10.960999c0.374001,-5.220032 0.799,-10.437012 1.166,-14.820007c2.832001,-33.880005 5.932999,-63.439026 9.479,-90.333008l0.799999,-6.107971c3.827999,-29.246033 7.785,-59.491028 17.389999,-87.690002c11.458,-33.640991 40.228004,-52.421021 66.858994,-66.354034c26.310013,-13.763977 53.371002,-24.553986 80.486008,-32.09198c1.460999,-10.451019 13.962006,-24.628998 25.738007,-35.916992c-6.772003,-8.825012 -9.617004,-19.040009 -8.111008,-29.325012c-0.048004,-0.11499 -0.095993,-0.230011 -0.143005,-0.345001c-1.320999,-3.210999 -2.459,-6.049011 -3.478989,-8.679016c-4.387009,-11.315979 -7.992004,-21.416992 -11.022003,-30.880981c-10.212006,-31.910004 -15.042999,-58.450012 -15.201996,-83.524994c-0.019012,-3.018005 0,-6.074005 0.057999,-9.130005c-5.450012,-0.394012 -11.098007,-0.910004 -17.128998,-1.563995c-2.75,-0.299011 -4.923004,-2.078003 -5.674011,-4.643005c-3.973999,-13.561005 -5.037994,-29.449997 -3.162994,-47.225998c0.354004,-3.354004 3.005005,-5.853012 6.304993,-5.942001c2.251999,-0.059998 4.504013,-0.12001 6.756012,-0.179001c-4.152008,-0.306 -7.313004,-3.738998 -7.282013,-8.018005c0.032013,-4.418991 3.310013,-7.763 7.649002,-7.832993c0.122009,-0.227005 0.253998,-0.448013 0.39801,-0.662003c0.619995,-0.921005 1.408997,-1.671997 2.319992,-2.227997c0.104004,-0.415009 0.225006,-0.818008 0.361008,-1.213013c0.770996,-2.235992 1.722992,-3.946991 2.487,-5.322998c0.912994,-1.640991 1.514999,-2.724991 1.765991,-4.358994c0.537003,-3.5 1.182999,-7.001999 1.921997,-10.408997c7.102005,-32.762009 20.414001,-61.864006 38.496002,-84.159004c26.71199,-32.935001 67.305008,-51.824001 111.371017,-51.824001c10.472992,0 21.085999,1.060001 31.542999,3.148998c39.84198,7.962002 75.746002,32.735001 101.096985,69.756004c22.128998,32.317001 24.601013,74.623001 23.912994,98.380981c2.149994,0.978012 4.156006,2.153 5.992004,3.516006c13.994995,10.386993 11.994995,31.473999 5.867981,46.957993c0.024048,0.210022 0.049011,0.421021 0.072998,0.632019c0.107056,0.946991 0.209045,1.840973 0.390015,2.519989c0.660034,2.489014 1.109009,5.247009 1.335022,8.197998c1,13.097992 -2.14502,24.605011 -9.347015,34.20401c-7.195007,9.591003 -18.104004,22.895996 -29.714996,27.673004c-2.095001,0.862 -4.187012,1.398987 -6.242004,1.603973c-3.053986,16.161011 -5.156006,31.048004 -6.411987,45.387024l-0.21402,2.414001c-0.346985,3.878998 -0.700989,7.847992 -0.903992,11.800995c0.457001,-0.011017 0.912994,-0.016022 1.367004,-0.016022c12.220001,0 22.128998,3.817017 28.657013,11.039001c6.908997,7.64502 9.873993,18.814026 8.826996,33.226013c4.048981,3.841003 8.674988,7.811005 10.155975,8.471985c1.55304,0.692017 3.575989,1.876007 5.60199,3.268005l0.048035,-0.125l67.411011,25.057007c13.731995,5.104004 26.518982,12.984009 38.883972,20.604004c6.36499,3.924011 12.947021,7.980011 19.432007,11.498016l0.982971,0.532959c20.827026,11.298035 42.364014,22.980042 63.139038,35.840027c1.541992,0.953979 3.52301,1.981995 5.622009,3.070007c5.497009,2.85199 11.727966,6.083984 15.362976,10.645996c5.429016,6.812988 10.747986,14.559998 16.739014,24.380005c11.546997,18.929016 21.146973,38.338989 28.534973,57.692017c7.881042,20.640991 13.020996,42.099976 17.992004,62.85199c1.190002,4.971985 2.384033,9.951965 3.61499,14.934998l1.035034,4.203979c3.052002,12.426025 6.208008,25.27301 10.794006,37.155029c0.112976,0.292969 0.252991,0.680969 0.412964,1.125977c0.255005,0.710999 0.869019,2.426025 1.302002,3.299988c3.702026,2.775024 3.218018,9.26001 2.662048,13.67804l4.619995,14.018982l-783.876026,0z" fill="#FFFFFF"/>
  <path id="svg_4" d="m180.283005,240.548996c9.714996,-1.942993 19.429001,-3.886002 29.143997,-5.828995c1.856003,-0.371002 1.067993,-3.201004 -0.781006,-2.832001c-9.714996,1.942993 -19.429001,3.886002 -29.143997,5.828995c-1.854996,0.371002 -1.067993,3.201004 0.781006,2.832001l0,0z"/>
  <polygon id="svg_5" points="204.509,195.967 197.778,207.627 213.196,243.121 208.718,278.29 211.629,325.613 231.861,386.923   240,410.827 240,424.531 249.805,439.458 257.365,445.413 257.369,489.788 236.959,511.413 245.548,564.834 291.875,644.121   308.902,641.511 373.117,571.686 404.113,566.139 486.011,446.718 465.535,438.427 457.297,425.51 455.843,397.775 463.823,331.213   473.611,331.539 494.167,314.246 507.545,289.253 506.24,262.693 512.439,242.999 507.219,229.111 494.167,218.024 491.681,182.1   478.506,132.505 448.814,95.308 411.087,67.574 372.789,55.828 340.908,53.217 303.907,59.743 273.45,71.489 252.716,89.761   233.139,113.58 218.456,139.357 210.487,163.176 205.731,183.732 " fill="#E2BC93"/>
  <path id="svg_6" d="m41.001999,786.661987l12.479,-111.265991l5.963001,-44.770996l12.780998,-50.432983l17.158005,-27.174011l38.922997,-25.700989c0,0 56.535995,-27.411041 57.514999,-27.411041c0.979004,0 46.744003,-10.034973 46.744003,-10.034973l16.397995,80.754974l49.188004,67.551025l79.042999,-67.552002l22.514008,-10.03302l123.580994,-88.586975l75.617004,28.631989l103.758972,60.688995l24.471008,16.640991l20.55603,29.85498l20.310974,43.314026l12.970032,39.398987l12.724976,51.322998l16.640991,48.142029l-770.338989,0" fill="#1A1A1A"/>
  <polygon id="svg_7" points="455.843,413.085 466.869,410.827 481.442,416.374 483.711,426.815 482.867,448.232 466.869,440.519   457.297,425.51 " fill="#1A1A1A"/>
  <path id="svg_8" d="m458.60199,232.462006c0,0 -9.462006,11.632004 -10.44101,31.862c-0.979004,20.22998 -3.914978,108.778015 -18.924988,122.583008c-15.009003,13.804993 -66.623993,61.325012 -66.623993,61.325012l-14.563995,-69.670013c0,0 72.051971,-43.171997 83.471985,-89.309998c11.420013,-46.137009 6.199005,-67.908997 6.199005,-67.908997s34.178009,-120.16201 -26.632996,-151.160011c0,0 55.345978,23.819 74.270996,78.635002c18.924988,54.815994 8.483002,72.525009 8.483002,72.525009s-23.165009,-6.060013 -35.238007,11.118988z" fill="#CCAA87"/>
  <path id="svg_9" d="m369.85199,371.673004c-11.912994,-1.266998 -12.550995,-34.832001 -31.859009,-29.039001s-80.665985,3.411011 -80.665985,3.411011s-37.695007,-8.815002 -35.673004,10.200989l17.552994,53.210999l0.457001,15.074005c0,0 13.133011,26.428986 35.279007,31.649994c22.147003,5.221008 44.863983,11.510986 87.669006,-7.947998c0.001007,-0.001007 59.772003,-70.976013 7.23999,-76.559998z" fill="#CCAA87"/>
  <path id="svg_10" d="m202.701004,271.054993c-4.839005,-0.292999 -9.673004,-0.690002 -14.501007,-1.130005c-5.848999,-0.53299 -4.043991,-1.569 -5.252991,-7.625c-2.251999,-11.283005 -1.958008,-23.322998 -1.018005,-34.746002c0.005997,-0.074997 0.000992,-0.134995 -0.001999,-0.197998c0.306,0.052002 0.714996,0.084 1.287994,0.069c4.264999,-0.112 8.529007,-0.220993 12.794006,-0.328995c11.39299,-0.28801 22.785995,-0.559006 34.179993,-0.800003c2.139999,-0.044998 14.320999,0.856003 14.212006,-1.628998c0.123001,2.796997 0.246002,5.593002 0.369003,8.389999c0.360001,8.181 0.718994,16.360992 1.078995,24.542007c0.225998,5.141998 -1.936005,9.130981 -3.966995,13.796997c-13.055008,0.852997 -26.130997,0.450989 -39.181,-0.341003z" fill="#FFFFFF" opacity="0.19"/>
  <path id="svg_11" d="m373.226013,224.147995c-0.09201,-0.66301 -0.825989,-1.041 -1.416016,-1.078003c-32.649994,-2.01799 -65.565002,-1.749008 -98.211975,0c-0.377991,0.020004 -0.658997,0.173996 -0.886017,0.375c-0.033997,0.024994 -0.065979,0.050003 -0.096985,0.078003c-0.049011,0.052002 -0.09201,0.104996 -0.132996,0.164001c-0.186005,0.222992 -0.330994,0.491989 -0.35202,0.850998c-0.774994,13.145004 -0.667999,26.67601 1.848022,39.631012c2.223999,11.451996 5.087982,10.627991 15.17099,11.165985c15.613007,0.834015 31.233002,1.559998 46.860016,2.071014c11.287994,0.368988 23.685974,1.785004 34.885986,-0.257019c0.684998,-0.125 1.01001,-0.802979 1.078003,-1.415985c1.871979,-16.906006 3.61499,-34.669006 1.252991,-51.585007z" fill="#FFFFFF" opacity="0.19"/>
  <path id="svg_12" d="m223.229004,479.020996c-30.779007,7.658997 -61.046997,19.55899 -89.105011,34.237c-27.717995,14.500977 -53.923996,32.646973 -64.443993,63.533997c-10.108002,29.676025 -13.887001,61.890991 -17.966,92.828003c-3.947002,29.934021 -6.938999,59.996033 -9.454002,90.082031c-0.41,4.907959 -0.808998,9.816956 -1.160999,14.729004c-0.280998,3.925964 -0.382,8.165955 0.348,12.052979c0.639,3.403015 1.286003,-2.60199 1.326,-3.161011c3.816002,-53.315002 9.105,-107.161987 19.761002,-159.572998c5.378002,-26.448975 13.711002,-57.138977 38.552998,-72.310974c18.670006,-11.403015 36.267998,-22.880005 56.400002,-31.818054c17.281998,-7.671967 35.160995,-14.059967 53.264999,-19.497955c4.132996,-1.242004 8.289001,-2.44101 12.477997,-3.483002c2.667999,-0.664001 0.074005,-17.638 -0.000992,-17.619019l0,0z"/>
  <path id="svg_13" d="m360.777008,444.54599c-22.096008,11.326996 -46.182983,18.317993 -70.770996,11.674988c-14.51001,-3.919983 -36.040009,-14.112976 -43.716995,-27.402985c-2.804001,-4.855011 -3.630005,-11.562012 -2.406006,-17.031006c0.791,-3.535004 -2.285004,-8.037994 -3.718994,-11.658997c-9.263,-23.376007 -17.109009,-47.438995 -22.355011,-72.045013c-5.298996,-24.850983 -4.685989,-50.975983 -2.281998,-76.146988c0.559998,-5.862 0.863007,-10.490997 -0.451004,-16.360001c-1.626999,-7.266998 -6.949997,-14.884003 -9.610992,-22.037003c-0.451004,-1.21199 -0.968002,-2.386993 -1.434998,-3.587997c-2.300003,-5.910995 2.595993,-9.539001 3.990997,-14.608002c0.557999,-2.029999 0.261993,-2.119003 0.759003,-5.08699c1.794998,-10.707001 4.631989,-21.238007 8.054993,-31.532013c11.960999,-35.974991 34.233002,-68.934998 67.983994,-87.472992c6.233002,-3.424004 9.666016,-4.703003 17.235016,-7.011002c10.846985,-3.306999 22.062988,-5.349998 33.35498,-6.304001c36.869019,-3.116001 72.920013,7.963997 101.470001,31.558998c28.840027,23.836006 44.251007,53.168007 50.482025,89.598c2.119995,12.39801 2.511993,25.044998 2.026001,37.589005c-0.220001,5.682999 8.589996,5.662003 8.809998,0c1.255981,-32.369995 -4.170013,-70.151001 -22.966003,-97.599998c-23.268005,-33.980003 -57.21701,-59.538002 -97.951019,-67.678001c-51.723999,-10.337002 -104.574982,5.644997 -138.051987,46.920998c-19.063004,23.503998 -31.115997,52.650993 -37.492996,82.069008c-0.726013,3.347992 -1.347,6.719986 -1.866013,10.105988c-0.666,4.348007 -2.973999,6.219009 -4.468994,10.555008c-1.649002,4.783997 0.378998,11.554001 1.188995,13.785004c2.725006,7.510986 5.55101,15.195999 9.479004,22.17099c2.695999,4.787003 0.972,11.559006 0.479996,16.712997c-1.088989,11.405014 -1.544998,22.852005 -1.472992,34.307999c0.179001,28.233002 6.395996,55.263 14.964005,82.032013c3.300995,10.315002 7.006989,20.501984 10.921997,30.597992c1.113998,2.873016 2.265991,5.730988 3.438995,8.580017c0.279007,0.676971 0.563004,1.352997 0.847,2.027985c1.516998,3.597015 0.274002,-2.416992 0.065994,-1.485992c-3.238998,14.468994 3.882004,27.787994 15.173004,36.423981c12.815994,9.802002 29.552017,17.444 45.350998,20.363007c24.121002,4.457001 48.123993,-3.518005 69.386993,-14.417999c5.056,-2.59198 0.597992,-10.192993 -4.446991,-7.606995l0,0z"/>
  <path id="svg_14" d="m472.86499,232.895996c5.595001,-12.235992 24.757996,-12.140991 31.984985,-1.51799c5.722015,8.410995 1.144012,24.011002 -1.779999,30.76799c-1.112,2.569 -0.039978,6.90799 0.64801,9.502014c1.411011,5.317993 1.368988,11.117004 0.585999,16.519989c-1.604004,11.067993 -9.369995,18.092987 -16.527985,25.927002c-3.08902,3.381012 -6.253998,6.643005 -9.697998,9.664001c-7.69101,6.746002 -13.654999,3.237 -18.590027,-4.513c-2.534973,-3.980011 -8.890991,-0.300995 -6.338989,3.704987c5.365997,8.426025 12.483002,15.016022 22.813995,10.765015c10.518005,-4.328003 20.984009,-17.207001 27.619019,-26.050018c6.780975,-9.037994 9.212006,-19.652985 8.358978,-30.820984c-0.185974,-2.434998 -0.556,-4.933014 -1.181976,-7.29599c-0.409027,-1.541016 -0.489014,-3.258026 -0.725006,-4.834015c-0.537994,-3.583984 -1.481018,3.179016 -0.084015,-0.139984c5.269012,-12.515015 9.06601,-32.953018 -3.667999,-42.403015c-12.128998,-9.000992 -32.832001,-8.121002 -39.753998,7.020004c-1.954987,4.270996 4.371002,8.005005 6.337006,3.703995l0,0z"/>
  <path id="svg_15" d="m503.584991,253.365005c0.881012,-5.903 1.372009,-18.644989 -6.433014,-21.063995c-10.621979,-3.292007 -18.414001,3.283997 -23.830994,11.916c-5.59198,8.912003 -5.669983,18.518005 -7.830994,28.459991c-2.105988,9.69101 -4.174988,17.178009 -3.553009,27.213013c0.115021,1.85498 2.343994,2.997009 3.76001,1.557007c2.746002,-2.791016 4.748993,0.524994 7.20401,-0.913025c4.376984,-2.563995 0.843994,-6.813995 9.612976,-5.556c2.777008,0.39801 3.973999,-3.845978 1.171021,-4.246979c-4.490021,-0.644012 -9.054016,-0.519012 -11.740021,3.764984c-2.146973,3.424011 1.262024,0.869019 -3.674988,0.869019c-2.213013,0 -4.218994,1.475983 -5.687012,2.967987c1.253021,0.518982 2.507019,1.037994 3.76001,1.557007c-0.848999,-13.697021 4.904999,-25.557007 5.506012,-39.069c0.319,-7.180008 4.904999,-14.909012 9.531006,-20.110016c11.189972,-12.582001 19.780975,-0.737991 17.957977,11.483002c-0.414978,2.776993 3.82901,3.971985 4.247009,1.171005l0,0z"/>
  <path id="svg_16" d="m486.143005,305.707001c11.140015,-6.712006 14.333008,-19.424988 14.351013,-31.726013c0.015991,-10.731995 -7.031006,-20.449982 -8.199005,-31.190994c-0.304016,-2.792999 -4.712006,-2.821991 -4.404999,0c1,9.199005 7.156982,19.218002 8.002991,27.211014c1.227997,11.595978 -1.321991,25.483978 -11.973999,31.902985c-2.428009,1.463013 -0.216003,5.27301 2.223999,3.803009l0,0z"/>
  <path id="svg_17" d="m459.756989,328.76001c-4.442993,21.89801 -7.800995,44.243011 -9.10199,66.553986c-0.652008,11.192017 -1.218994,23.823029 3.466003,34.290009c3.793976,8.476013 15.803986,20.326019 26.208984,18.425995c5.583008,-1.019989 3.210999,-9.509003 -2.34201,-8.494995c-6.001984,1.096008 -16.398987,-12.505005 -17.934998,-20.467987c-2.125977,-11.026001 -0.792999,-23.095001 0.178009,-34.171997c1.57901,-18.029999 4.421997,-36.054016 8.020996,-53.792023c1.125031,-5.546997 -7.365997,-7.908997 -8.494995,-2.342987l0,0z"/>
  <path id="svg_18" d="m231.544006,365.888c4.535004,6.299011 13.783005,9.089996 20.895004,10.660004c28.698013,6.333008 60.643997,-3.464996 87.457993,-12.759003c1.778015,-0.615997 1.014008,-3.453003 -0.781006,-2.832001c-26.435974,9.161987 -56.315979,18.046997 -84.563004,13.023987c-6.669998,-1.185974 -16.689987,-4.319 -20.473999,-9.575989c-1.093994,-1.520996 -3.64299,-0.057007 -2.534988,1.483002l0,0z"/>
  <path id="svg_19" d="m338.766998,352.384003c9.868011,4.177002 8.52301,15.054993 4.041016,22.89801c-0.94101,1.646973 1.595978,3.125977 2.53598,1.481995c5.194,-9.088013 6.339996,-22.075012 -5.095001,-26.915009c-1.722992,-0.729004 -3.220978,1.799011 -1.481995,2.535004l0,0z"/>
  <path id="svg_20" d="m325.714996,373.233002c-17.55899,9.035004 -33.928986,15.917999 -53.723999,17.898987c-9.833008,0.984009 -26.994995,0.674011 -30.257996,-11.583984c-0.487,-1.828003 -3.320007,-1.052002 -2.832001,0.781006c2.707001,10.168976 14.679001,13.575989 23.803009,14.169983c23.020996,1.497009 44.647003,-8.518982 64.492981,-18.72998c1.684998,-0.868011 0.199005,-3.401001 -1.481995,-2.536011l0,0z"/>
  <path id="svg_21" d="m251.800995,407.022003c12.609009,-4.821014 26.968018,-5.368011 40.005005,-2.283997c1.84201,0.436005 2.622986,-2.395996 0.781006,-2.832001c-13.513,-3.196991 -28.484009,-2.71701 -41.56601,2.283997c-1.750992,0.669983 -0.991989,3.509003 0.779999,2.832001l0,0z"/>
  <path id="svg_22" d="m256.424011,233.207993c-17.352005,-17.559998 -44.850006,-24.337006 -68.639008,-24.679001c-3.788986,-0.054001 -3.783997,5.819 0,5.873001c22.216003,0.319 48.231003,6.507996 64.486008,22.959c2.664993,2.697006 6.815994,-1.456985 4.153,-4.153l0,0z"/>
  <path id="svg_23" d="m256.882996,233.802994c-12.562988,-20.764999 -39.694,-28.919006 -62.417999,-29.283005c-3.789001,-0.061005 -3.78299,5.813004 0,5.873001c20.559998,0.328995 45.891006,7.438995 57.346008,26.373993c1.957993,3.235016 7.037994,0.285019 5.071991,-2.963989l0,0z"/>
  <path id="svg_24" d="m266.746002,340.02301c-15.294006,1.046997 -31.886002,-3.868988 -40.085999,-17.80899c-3.087006,-5.247009 6.987991,-21.865997 9.052002,-26.509003c5.255997,-11.821014 10.880997,-23.47702 16.464996,-35.145996c4.083008,-8.534012 8.161011,-16.264008 5.001984,-26.055008c-1.15799,-3.589005 -6.828979,-2.054001 -5.662979,1.560989c3.653,11.324005 -5.830002,24.457001 -10.519012,34.321014c-6.000992,12.622986 -11.979996,25.294983 -17.110992,38.302002c-3.054001,7.73999 -5.326996,13.190002 0.179001,20.141998c10.352005,13.070984 26.429001,18.177002 42.682007,17.065002c3.755981,-0.256012 3.781006,-6.131012 -0.001007,-5.872009l0,0z"/>
  <path id="svg_25" d="m297.559998,310.141998c11.276001,-4.329987 5.725006,15.924988 3.578003,20.459991c-4.622009,9.764008 -19.949005,-0.625 -27.600006,-1.40799c-2.936005,-0.300995 -12.673981,-0.769012 -12.673981,4.239014c0,4.823975 7.096985,3.398987 9.829987,2.944c2.796997,-0.466003 1.606995,-4.710022 -1.17099,-4.247009c-10.326019,1.720001 -0.526001,1.247009 1.789978,1.242004c3.59201,-0.007019 7.387024,1.455994 10.759003,2.559998c4.035004,1.320984 8.667999,3.713989 13.006012,3.68399c6.406982,-0.044006 9.419006,-5.269012 11.527008,-10.665009c3.437988,-8.798981 5.013,-28.904999 -10.216003,-23.056976c-2.623993,1.007996 -1.485016,5.267975 1.17099,4.247986l0,0z"/>
  <path id="svg_26" d="m242.854996,271.339996c-13.377991,0.938995 -26.779999,0.527008 -40.153992,-0.283997c-4.839005,-0.294006 -9.673004,-0.690002 -14.501007,-1.130005c-5.848999,-0.53299 -4.043991,-1.569 -5.252991,-7.625c-2.251999,-11.28299 -1.958008,-23.322998 -1.018005,-34.744995c0.143997,-1.75 -2.414001,-0.031998 1.285995,-0.128998c4.264999,-0.112 8.529007,-0.221008 12.794006,-0.328995c11.39299,-0.28801 22.785995,-0.559006 34.179993,-0.800003c2.139999,-0.044998 14.320999,0.856003 14.212006,-1.628998c0.123001,2.796997 0.246002,5.592987 0.369003,8.389999c0.360001,8.181 0.718994,16.360992 1.078995,24.542007c0.242004,5.515991 -2.264999,9.694977 -4.410004,14.817993c-0.731003,1.746002 2.112,2.501007 2.832001,0.781006c3.320007,-7.933014 4.689011,-11.636017 4.320999,-20.003006c-0.419998,-9.552002 -0.839996,-19.105011 -1.259995,-28.657013c-0.035004,-0.789993 -0.641998,-1.480988 -1.468002,-1.467987c-21.755005,0.338989 -43.507004,0.906998 -65.257004,1.488998c-0.865005,0.022995 -1.383011,0.654999 -1.468002,1.468002c-1.578995,14.968994 -1.261002,30.791 2.988998,45.294998c0.199005,0.679993 0.746994,1.005005 1.416,1.078003c19.613998,2.130005 39.615005,3.257996 59.311996,1.876007c1.877014,-0.134003 1.890015,-3.071014 -0.000992,-2.938019z"/>
  <path id="svg_27" d="m272.130005,224.537994c-0.774994,13.144989 -0.667999,26.675995 1.847992,39.630981c2.223999,11.452026 5.088013,10.628021 15.171021,11.166016c15.613007,0.834015 31.233002,1.559998 46.859985,2.071014c11.287994,0.368988 23.686005,1.785004 34.886017,-0.257019c0.684998,-0.125 1.009979,-0.802979 1.078003,-1.415985c1.871979,-16.907013 3.61499,-34.669998 1.252991,-51.585999c-0.093018,-0.66301 -0.825989,-1.041 -1.416016,-1.078003c-32.649994,-2.018005 -65.565002,-1.748993 -98.211975,0c-1.883026,0.100998 -1.893005,3.037994 0,2.936996c32.550995,-1.744003 65.315002,-1.927994 97.869995,-0.020996c0.673981,0.039001 -1.312012,37.763992 -1.671021,41.956009c-0.161987,1.891998 -0.346985,3.781982 -0.53598,5.67099c-0.300018,2.998993 0.751984,0.769012 -0.755005,0.932007c-4.06601,0.438995 -8.217987,0.343994 -12.299988,0.339996c-23.211029,-0.026001 -46.452026,-1.375 -69.624023,-2.623016c-2.410004,-0.129974 -4.819977,-0.263 -7.229004,-0.401001c-1.609985,-0.09198 -3.497986,-14.162994 -3.754974,-16.35199c-1.195007,-10.207001 -1.136017,-20.716995 -0.532013,-30.970001c0.112,-1.89299 -2.825012,-1.881989 -2.936005,0z"/>
  <path id="svg_28" d="m249.302002,246.559006c-0.471008,0.662003 0.679993,-0.731003 0.936996,-0.98999c1.029999,-1.037003 2.251007,-1.778 3.542007,-2.445007c6.143005,-3.175003 13.128998,0.900009 18.007996,4.488007c3.056,2.246994 5.980988,-2.853012 2.963989,-5.070999c-9.246002,-6.799011 -22.888992,-9.688004 -30.521988,1.052994c-2.199997,3.094986 2.897003,6.023987 5.070999,2.964996l0,0z"/>
  <path id="svg_29" d="m449.075989,221.826004c-25.585999,7.278 -51.173004,14.556992 -76.759003,21.834991c-1.817993,0.516998 -1.044983,3.350998 0.781006,2.832001c25.585999,-7.278 51.173004,-14.556992 76.759003,-21.834991c1.817993,-0.518005 1.044006,-3.350998 -0.781006,-2.832001l0,0z"/>
  <path id="svg_30" d="m475.924011,226.270004c0.035004,-12.477005 -21.098999,-7.544998 -27.239014,-5.860001c-3.64798,1.000992 -2.096985,6.666992 1.561005,5.662994c5.218994,-1.431992 12.859009,-3.936996 18.184021,-1.429993c0.858002,0.403992 1.266998,0.860992 1.60199,1.50499c0.016998,0.031998 0.018005,0.115005 0.018005,0.122009c-0.009033,3.787994 5.863983,3.787003 5.873993,0l0,0z"/>
  <path id="svg_31" d="m308.955994,247.153c13.799011,-13.233002 34.027985,-11.423004 49.299988,-2.061996c3.238007,1.985001 6.187012,-3.096008 2.96402,-5.070999c-17.572998,-10.772003 -40.674011,-12.117004 -56.417023,2.979996c-2.737976,2.626007 1.420013,6.774002 4.153015,4.153l0,0z"/>
  <path id="svg_32" d="m217.921997,241.209c7.152008,-9.167999 18.895004,-5.080002 26.555008,1.089005c2.919998,2.35199 7.102997,-1.777008 4.153,-4.153c-9.873001,-7.951004 -25.572006,-12.996002 -34.861008,-1.089005c-2.300003,2.949005 1.824997,7.136993 4.153,4.153l0,0z"/>
  <g id="svg_33">
   <circle id="svg_34" r="8.541" cy="242.79" cx="339.508"/>
  </g>
  <g id="svg_35">
   <circle id="svg_36" r="5.221" cy="240.222" cx="238.359"/>
  </g>
  <path id="svg_37" d="m277.05899,222.723007c13.307007,2.798004 26.972992,1.774002 40.181,-0.955994c18.588013,-3.84201 39.963013,-8.968002 57.329987,1.444c3.257019,1.953003 6.208008,-3.126999 2.96402,-5.070999c-30.602997,-18.347 -66.372009,5.761002 -98.914001,-1.081009c-3.694,-0.776001 -5.265991,4.884995 -1.561005,5.664001l0,0z"/>
  <path id="svg_38" d="m275.617004,218.003006c12.544006,7.005005 27.662018,8.697998 41.47998,5.149002c7.375,-1.893997 14.406006,-4.832993 21.854004,-6.509003c12.641998,-2.843994 24.216003,1.115005 34.878021,7.835999c4.820984,3.040009 9.237976,-4.585999 4.445984,-7.606995c-16.35199,-10.309006 -32.453979,-11.919998 -50.727997,-6.285995c-16.173004,4.987 -31.653992,8.649994 -47.484009,-0.19101c-4.964996,-2.772003 -9.405975,4.837997 -4.445984,7.608002l0,0z"/>
  <g id="svg_39">
   <path id="svg_40" d="m806.749023,772.025024c-1.137024,-0.51001 -2.531006,-4.890991 -3.117981,-6.411987c-5.221008,-13.525024 -8.548035,-27.893005 -12.018005,-41.929016c-6.444031,-26.062988 -11.820007,-52.028015 -21.424988,-77.187012c-7.549011,-19.774963 -17.114014,-38.802002 -28.132996,-56.862976c-5.014038,-8.218018 -10.376038,-16.328003 -16.381042,-23.864014c-4.242981,-5.323975 -14.02002,-9.05896 -19.705994,-12.578979c-20.971985,-12.981018 -42.287964,-24.518982 -63.875,-36.229004c-19.03302,-10.325012 -37.348999,-24.256012 -57.672974,-31.809998c-22.471008,-8.35202 -44.94104,-16.70401 -67.412048,-25.056c0.044006,0.015991 0.051025,0.177002 0.044006,0.395996c-2.255005,-1.649994 -4.511963,-3.001007 -5.985992,-3.658997c-3.658997,-1.632019 -13.30899,-11.093994 -13.30899,-11.093994c5.221008,-51.553009 -42.993988,-40.133026 -42.993988,-40.133026l1.556,10.766998c29.365997,-2.609985 21.208984,15.988007 21.208984,15.988007c-10.11499,61.994019 -87.117981,127.903992 -87.117981,127.903992l-23.493011,3.588989l-12.725006,16.967041c-23.802979,7.060974 -44.221985,25.454956 -60.725983,46.406006c-11.824005,-15.731995 -38.599014,-69.07605 -45.591019,-93.938049c-7.34201,-26.10199 12.124985,-42.196014 12.124985,-42.196014l0,-45.027008l-12.125,-7.638977c0,0 -30.779999,26.888977 -30.779999,40.266968c0,13.378021 -26.565002,82.877014 -37.251007,95.92804c-10.685989,13.052002 -5.125,19.903992 -5.125,19.903992s29.076004,-11.419983 35.91301,-26.103027c0,0 28.519989,-0.652954 52.429001,38.174988l21.980988,31.848022c-25.46698,36.419006 -39.50499,75.554016 -39.50499,75.554016l2.447998,0l48.452988,6.987976c0,0 33.608002,-71.061951 43.070007,-83.786987s56.121002,-72.075012 56.121002,-72.075012c30.345001,19.577026 91.033997,40.477051 91.033997,40.477051c18.597992,-21.209045 37.196991,-82.542053 37.196991,-82.542053s0.325989,-13.046967 0.653015,-19.246979c0.197998,-3.760986 0.63501,-14.359009 0.65802,-23.066986c19.75,7.341003 39.498962,14.681976 59.248962,22.02298c20.309021,7.548004 38.687988,21.435028 57.673035,31.810028c21.544983,11.774963 42.897949,23.26001 63.875,36.229004c5.515991,3.409973 16.148987,8.096985 19.604004,12.471008c6.669983,8.441956 12.506958,17.569946 18.047974,26.776001c11.289978,18.758972 20.598999,38.672974 28.220032,59.18396c9.640991,25.947021 14.534973,53.213013 21.384949,79.953979c2.992004,11.67804 5.973999,23.546021 10.426025,34.775024c0.521973,1.317017 1.544983,4.978027 3.098999,5.674988c-0.854004,-0.381958 3.278992,-16.14801 -0.000977,-17.618958z"/>
  </g>
  <path id="svg_41" d="m277.839996,214.199997" stroke-miterlimit="10" stroke="#000000" fill="none"/>
  <path id="svg_42" d="m40,790.5l770.338989,0l-2.77301,-8.27301c0.579041,-4.388 0.919983,-9.297974 -0.815979,-10.075989c-1.137024,-0.51001 -2.531006,-4.953979 -3.117981,-6.473999c-5.221008,-13.525024 -8.548035,-27.924011 -12.018005,-41.960022c-6.444031,-26.062988 -11.820007,-52.042969 -21.425049,-77.203003c-7.54895,-19.774963 -17.113953,-38.809998 -28.132996,-56.870972c-5.013977,-8.218018 -10.375977,-16.332031 -16.380981,-23.867981c-4.242981,-5.324036 -14.02002,-9.061035 -19.705994,-12.581055c-20.971985,-12.980957 -42.288025,-24.519958 -63.875,-36.22998c-19.03302,-10.324982 -37.348999,-24.255981 -57.672974,-31.809998c-22.471008,-8.35199 -44.94104,-16.703979 -67.412048,-25.056c0.044006,0.016022 0.051025,0.177002 0.044006,0.395996c-2.255005,-1.649994 -4.511963,-3.000977 -5.985992,-3.658997c-3.658997,-1.630981 -13.30899,-11.093994 -13.30899,-11.093994c4.27298,-42.195984 -27.246002,-42.20401 -38.830994,-40.816986c0.052002,-6.744019 0.737976,-13.555023 1.304993,-20.029022c1.467987,-16.760986 4.037994,-33.513977 7.281982,-50.039001c2.556,0.429016 5.358002,0.133026 8.451019,-1.138977c10.518005,-4.328003 20.984009,-17.207001 27.618988,-26.050018c6.781006,-9.037994 9.211975,-19.652985 8.359009,-30.820984c-0.186005,-2.434998 -0.556,-4.933014 -1.182007,-7.296021c-0.408997,-1.540985 -0.488983,-3.257996 -0.725006,-4.833984c-0.013,-0.089996 -0.026978,-0.167999 -0.040985,-0.244995c5.245972,-12.524002 8.987976,-32.874008 -3.710999,-42.298004c-2.47702,-1.837997 -5.313995,-3.257004 -8.31601,-4.233002c0.122009,-0.38501 0.213989,-0.794006 0.231018,-1.253998c1.255981,-32.37001 -4.170013,-70.151001 -22.966003,-97.600006c-23.268005,-33.979996 -57.21701,-59.537998 -97.951019,-67.677998c-51.723999,-10.337002 -104.574982,5.645 -138.051987,46.921001c-19.063004,23.503998 -31.116013,52.650993 -37.493011,82.068993c-0.725998,3.348007 -1.347,6.720001 -1.865997,10.106003c-0.666,4.348007 -2.973999,6.219009 -4.468994,10.555008c-0.373001,1.080994 -0.550003,2.263992 -0.604004,3.472c-0.110001,-0.001999 -0.220993,-0.007004 -0.330994,-0.009003c-2.445007,-0.039001 -3.300003,2.386993 -2.590012,4.134003c-1.373001,-0.062012 -2.737991,-0.105011 -4.089996,-0.124008c-3.789001,-0.054001 -3.783997,5.819 0,5.873001c2.878998,0.041 5.822998,0.184006 8.80101,0.432007c0.000992,0.001999 0.001999,0.00499 0.002991,0.006989c1.111008,3.061005 2.242996,6.150009 3.455002,9.209c-6.479004,0.165009 -12.957993,0.335007 -19.436996,0.508011c-0.865005,0.022995 -1.383011,0.654999 -1.468002,1.468002c-1.578995,14.968994 -1.261002,30.791 2.988998,45.294998c0.199005,0.679993 0.746994,1.005005 1.416,1.078003c7.195999,0.781006 14.444,1.425995 21.710007,1.863007c-0.14801,4.586975 -0.208008,9.177979 -0.179001,13.769989c0.179001,28.233002 6.395996,55.263 14.963989,82.031982c3.30101,10.315002 7.007004,20.502014 10.922012,30.598022c1.113998,2.872986 2.265991,5.730988 3.438995,8.579987c0.22699,0.550995 0.457993,1.100006 0.688995,1.649994c-2.162994,11.489014 2.160004,22.187012 9.833008,30.307007c-7.789001,7.201019 -27.770004,26.722992 -27.770004,37.494019c0,0.549988 -0.048996,1.203979 -0.136002,1.934998c-28.632996,7.669983 -56.723999,18.938995 -82.891006,32.62796c-27.717995,14.501038 -53.923996,32.647034 -64.443993,63.534058c-10.108002,29.675964 -13.887001,61.89093 -17.966,92.827942c-3.947002,29.934021 -6.939003,59.996033 -9.454002,90.082031c-0.41,4.90802 -0.808998,9.817017 -1.160999,14.729004c-0.243,3.401978 -0.349998,7.039978 0.101002,10.47998l-0.196003,2.001038l-1.006989,3.586975zm141.929001,-562.945007l0,0c0,-0.001007 0,-0.001999 0,-0.003006c0,0.001007 0,0.002014 0,0.003006zm0.763,-0.130997c0.156998,0.003998 0.322006,0.005997 0.511002,0.001007c-0.188995,0.005997 -0.354996,0.003998 -0.511002,-0.001007zm-0.399994,-0.022003c0.070999,0.005997 0.139999,0.013 0.220001,0.015991c-0.078003,-0.003983 -0.150009,-0.009979 -0.220001,-0.015991zm-1.067001,15.384003c-0.000992,0.731003 0.003998,1.462006 0.016006,2.193008c-0.011017,-0.730011 -0.017014,-1.460999 -0.016006,-2.193008zm2.229996,23.185989c0.046005,0.479004 0.087006,0.895996 0.143005,1.261993c-0.056,-0.36499 -0.096008,-0.78299 -0.143005,-1.261993zm0.832001,2.904022c-0.201004,-0.192993 -0.345001,-0.42099 -0.453003,-0.69101c0.106995,0.269989 0.251999,0.498016 0.453003,0.69101c0.401993,0.386017 1.033005,0.63501 2.057999,0.817993c-1.026001,-0.183014 -1.656006,-0.432007 -2.057999,-0.817993zm11.160004,1.669006c2.417007,0.19101 4.835007,0.363007 7.255005,0.51001c0.572998,0.034973 1.145004,0.063995 1.718002,0.096985c-0.572998,-0.03299 -1.145004,-0.062012 -1.718002,-0.096985c-2.420013,-0.146027 -4.839005,-0.319031 -7.255005,-0.51001zm-142.841007,412.649994l-6.150997,54.846008c1.698997,-18.311035 3.691998,-36.619019 6.150997,-54.846008z" stroke-miterlimit="10" stroke="#000000" fill="none"/>
 </g>
</svg>